<svg width="37" height="34" fill="none" xmlns="http://www.w3.org/2000/svg"><path d="M34.318.72H2.053A2.053 2.053 0 000 2.776V25.7a2.062 2.062 0 002.053 2.058h11.799l-.783 2.351h-1.337a.586.586 0 00-.586.588v1.175H7.039a.586.586 0 00-.586.588.589.589 0 00.587.588h22.29a.586.586 0 00.415-1.003.586.586 0 00-.415-.173h-4.106v-1.175a.588.588 0 00-.587-.588H23.3l-.782-2.351h11.799a2.062 2.062 0 002.053-2.057V2.776A2.062 2.062 0 0034.318.719zM24.052 31.285v.587H12.319v-.587h11.733zm-9.746-1.176l.783-2.351h6.193l.782 2.351h-7.758zM35.198 25.7a.884.884 0 01-.88.882H2.053a.88.88 0 01-.88-.882v-2.645h34.024V25.7zm0-3.82H1.172V2.777a.883.883 0 01.88-.882h32.265a.88.88 0 01.88.882V21.88z" fill="#C6C6C6"/></svg>