<svg width="20" height="34" fill="none" xmlns="http://www.w3.org/2000/svg"><path d="M11.053 1.764a.333.333 0 00-.117-.25.43.43 0 00-.283-.103H6.985a.429.429 0 00-.283.103.333.333 0 00-.117.25c0 .093.042.183.117.25a.429.429 0 00.283.103h3.668a.43.43 0 00.283-.104.333.333 0 00.117-.25zm1.293.588a.588.588 0 100-1.176.588.588 0 000 1.176z" fill="#1D1D1D" fill-opacity=".25"/><path fill-rule="evenodd" clip-rule="evenodd" d="M19.003 5.535V2.514A2.516 2.516 0 0016.488 0H2.899A2.519 2.519 0 00.384 2.514v3.653A.405.405 0 000 6.571v1.406a.404.404 0 00.384.404v1.303a.405.405 0 00-.384.403v1.407a.404.404 0 00.384.403v18.748A2.516 2.516 0 002.9 33.159h13.588a2.518 2.518 0 002.515-2.515V7.712a.405.405 0 00.282-.385V5.92a.404.404 0 00-.281-.385zm-1.31 26.315c.32-.32.5-.753.5-1.206V2.514A1.707 1.707 0 0016.487.809H2.9a1.708 1.708 0 00-1.706 1.705v28.13A1.707 1.707 0 002.9 32.35h13.588c.453 0 .886-.18 1.206-.5z" fill="#1D1D1D" fill-opacity=".25"/></svg>