<svg width="91" height="25" fill="none" xmlns="http://www.w3.org/2000/svg"><path d="M26.766 6.77h-4.278v3.914h4.875V11h-5.191V2.469h5.191v.316h-4.875v3.668h4.278v.317zM29.124 11V2.469h2.361c.66 0 1.258.156 1.793.469a3.3 3.3 0 011.26 1.318c.305.562.46 1.193.469 1.892v1.108c0 .71-.15 1.351-.451 1.922a3.295 3.295 0 01-1.248 1.336 3.465 3.465 0 01-1.793.486h-2.391zm.316-8.215v7.899h2.045c.598 0 1.14-.145 1.63-.434a3.07 3.07 0 001.153-1.219 3.708 3.708 0 00.422-1.74V6.195c0-.636-.136-1.215-.41-1.734a3.003 3.003 0 00-1.137-1.219 3.104 3.104 0 00-1.61-.457H29.44zm9.349 7.688l.386-1.407 2.016-6.597h.352l2.004 6.597.38 1.407.399-1.407 1.758-6.597h.345L44.133 11h-.358L41.66 3.887l-.299-.903-.287.903L38.941 11h-.357L36.28 2.469h.352l1.77 6.597.386 1.407zM52.327 8.45h-4.178L47.2 11h-.345l3.194-8.531h.386L53.628 11h-.346l-.955-2.549zm-4.06-.316h3.943L50.24 2.85l-1.974 5.285zM58.37 7.35h-2.96V11h-.316V2.469h2.719c.855 0 1.535.22 2.039.662.508.441.762 1.04.762 1.799 0 .582-.182 1.091-.545 1.529-.36.434-.819.703-1.377.809l2.28 3.65V11h-.335L58.37 7.35zm-2.96-.317h2.69c.656 0 1.186-.199 1.588-.597.406-.399.61-.9.61-1.506 0-.664-.225-1.188-.675-1.57-.445-.383-1.056-.575-1.834-.575h-2.378v4.248zM63.097 11V2.469h2.361c.66 0 1.258.156 1.793.469.535.312.956.751 1.26 1.318.305.562.461 1.193.469 1.892v1.108c0 .71-.15 1.351-.451 1.922a3.295 3.295 0 01-1.248 1.336 3.465 3.465 0 01-1.793.486h-2.39zm.317-8.215v7.899h2.044c.598 0 1.141-.145 1.63-.434a3.07 3.07 0 001.154-1.219 3.708 3.708 0 00.421-1.74V6.195c0-.636-.136-1.215-.41-1.734a3.002 3.002 0 00-1.136-1.219 3.104 3.104 0 00-1.612-.457h-2.092zM26.722 19.876H23.24L22.45 22h-.289l2.661-7.11h.323l2.66 7.11h-.287l-.796-2.124zm-3.384-.264h3.286l-1.64-4.404-1.646 4.404zm8.52-.654h-2.466V22h-.263v-7.11h2.265c.713 0 1.28.184 1.7.552.423.368.634.868.634 1.5 0 .484-.151.91-.454 1.274a1.91 1.91 0 01-1.147.674l1.9 3.042V22h-.28l-1.889-3.042zm-2.466-.264h2.242c.547 0 .987-.166 1.323-.498.338-.332.508-.75.508-1.255 0-.553-.188-.99-.562-1.308-.371-.32-.88-.479-1.528-.479h-1.983v3.54zm10.332-.22H36.16v3.262h4.062V22h-4.326v-7.11h4.326v.264H36.16v3.057h3.564v.264zm6.9 1.348c-.069.733-.321 1.296-.757 1.69-.437.39-1.029.586-1.778.586-.504 0-.952-.127-1.343-.381a2.539 2.539 0 01-.903-1.09c-.215-.471-.324-1.01-.327-1.615v-1.099c0-.605.106-1.146.317-1.621.212-.479.513-.848.904-1.108.394-.26.844-.391 1.352-.391.742 0 1.333.195 1.773.586.44.39.693.95.761 1.68h-.263c-.075-.655-.303-1.151-.684-1.49-.38-.342-.91-.512-1.587-.512-.69 0-1.248.26-1.675.78-.423.522-.634 1.22-.634 2.096v1.044c0 .56.094 1.057.283 1.49.189.43.459.765.81 1.006.355.24.76.361 1.216.361.68 0 1.211-.168 1.592-.503.384-.335.61-.838.679-1.509h.263zM53.541 22h-.264v-3.525h-4.54V22h-.264v-7.11h.264v3.32h4.54v-3.32h.264V22zm3.564-.44l.323-1.171 1.68-5.498h.292l1.67 5.498.318 1.172.332-1.172 1.465-5.498h.288L61.56 22h-.298l-1.763-5.928-.249-.752-.24.752L57.234 22h-.297l-1.92-7.11h.294l1.474 5.499.322 1.172zm11.382-1.684h-3.481L64.216 22h-.288l2.66-7.11h.323L69.572 22h-.288l-.796-2.124zm-3.384-.264h3.286l-1.64-4.404-1.646 4.404z" fill="#fff"/><path stroke="#fff" stroke-width=".5" d="M.823 11.823l10-10m.354 20l-10-10m89 .354l-10 10m-.354-20l10 10"/></svg>